<svg class="svg-icon" style="width: 1em; height: 1em;vertical-align: middle;fill: currentColor;overflow: hidden;" viewBox="0 0 1024 1024" version="1.1" xmlns="http://www.w3.org/2000/svg"><path d="M303.1552 328.7552a25.6 25.6 0 1 1 0-51.2h323.3792a25.6 25.6 0 1 1 0 51.2H303.1552zM303.1552 450.0224a25.6 25.6 0 1 1 0-51.2h235.8784a25.6 25.6 0 1 1 0 51.2h-235.8784zM303.1552 571.2896a25.6 25.6 0 1 1 0-51.2H458.24a25.6 25.6 0 0 1 0 51.2h-155.0848z" fill="#787878" /><path d="M431.1552 850.176a25.6 25.6 0 1 1 0 51.2h-148.224a160.3328 160.3328 0 0 1-160.3328-160.3328V282.9568a160.3328 160.3328 0 0 1 160.3584-160.3584h458.0864a160.3328 160.3328 0 0 1 160.3584 160.3584v158.3104a25.6 25.6 0 1 1-51.2 0v-158.3104a109.1328 109.1328 0 0 0-109.1584-109.1584H282.9568a109.1328 109.1328 0 0 0-109.1584 109.1584v458.0864a109.1328 109.1328 0 0 0 109.1584 109.1584h148.224z" fill="#787878" /><path d="M738.4576 802.4832a25.6 25.6 0 1 0 34.7648 37.5808l92.16-85.2736a25.6 25.6 0 1 0-34.7648-37.5808l-92.16 85.2736z" fill="#787878" /><path d="M740.1984 667.9808a25.6 25.6 0 1 1 35.456-36.9408l90.0864 86.5024c16.64 15.9744 5.3248 44.0576-17.7408 44.0576H448a25.6 25.6 0 1 1 0-51.2h336.384l-44.1856-42.4192z" fill="#787878" /></svg>